
<svg width="65" height="18" viewBox="0 0 65 18" fill="none" xmlns="http://www.w3.org/2000/svg">
  <path d="M61.9948 10.1546C62.3672 10.1546 62.6997 10.2183 62.9915 10.3458C63.2832 10.4742 63.5312 10.6455 63.7363 10.8615C63.9414 11.0766 64.0958 11.3266 64.2013 11.6113C64.3069 11.8961 64.3606 12.1998 64.3606 12.5205C64.3606 12.9008 64.2899 13.2623 64.1475 13.6058C64.0052 13.9493 63.804 14.251 63.5451 14.5149C63.2852 14.7778 62.9775 14.9879 62.6191 15.1452C62.2616 15.3016 61.8673 15.3802 61.4361 15.3802H59.7384L59.4865 17.8228H58.4897L59.3003 10.1546H61.9948ZM62.2746 14.3178C62.4976 14.2152 62.6888 14.0788 62.8501 13.9075C63.0104 13.7353 63.1369 13.5361 63.2275 13.3101C63.3191 13.083 63.3649 12.8461 63.3649 12.5971C63.3649 12.385 63.332 12.1869 63.2663 11.9997C63.2006 11.8135 63.104 11.6492 62.9756 11.5068C62.8481 11.3644 62.6928 11.2529 62.5096 11.1732C62.3273 11.0926 62.1222 11.0527 61.8962 11.0527H60.1974L59.836 14.4711H61.5337C61.8046 14.4711 62.0515 14.4193 62.2746 14.3178Z" fill="#B3B3B3"/>
  <path d="M55.4448 17.8228L56.0034 12.4766L53.2432 17.8228H52.4765L50.8225 12.4766L50.2639 17.8228H49.2662L50.0767 10.1546H51.0406L53.0231 16.2893L56.2981 10.1546H57.262L56.4515 17.8228H55.4448Z" fill="#B3B3B3"/>
  <path d="M48.0624 10.1546L47.2518 17.8228H46.2222L47.0328 10.1546H48.0624Z" fill="#B3B3B3"/>
  <path d="M42.8268 10.1546C43.1992 10.1546 43.5317 10.2183 43.8235 10.3458C44.1152 10.4742 44.3632 10.6455 44.5683 10.8615C44.7734 11.0766 44.9278 11.3266 45.0333 11.6113C45.1389 11.8961 45.1926 12.1998 45.1926 12.5205C45.1926 12.8281 45.1458 13.1219 45.0502 13.4027C44.9556 13.6835 44.8222 13.9414 44.651 14.1754C44.4797 14.4084 44.2736 14.6165 44.0316 14.7997C43.7906 14.9819 43.5198 15.1203 43.2211 15.2159L44.5574 17.8228H43.4182L42.1477 15.3802H40.5704L40.3185 17.8228H39.3217L40.1323 10.1546H42.8268ZM43.1066 14.3178C43.3296 14.2152 43.5208 14.0788 43.6821 13.9075C43.8424 13.7353 43.9689 13.5361 44.0595 13.3101C44.1511 13.083 44.1969 12.8461 44.1969 12.5971C44.1969 12.385 44.164 12.1869 44.0983 11.9997C44.0326 11.8135 43.936 11.6492 43.8076 11.5068C43.6801 11.3644 43.5248 11.2529 43.3416 11.1732C43.1593 11.0926 42.9542 11.0527 42.7282 11.0527H41.0294L40.668 14.4711H42.3657C42.6366 14.4711 42.8835 14.4193 43.1066 14.3178Z" fill="#B3B3B3"/>
  <path d="M33.0725 14.4592L32.722 17.8228H31.7252L32.5358 10.1546H33.5325L33.172 13.562H36.7428L37.1042 10.1546H38.101L37.2904 17.8228H36.2937L36.6442 14.4592H33.0725Z" fill="#B3B3B3"/>
  <path d="M26.402 16.6349C26.6868 16.9455 27.0881 17.0999 27.6069 17.0999C27.8478 17.0999 28.0689 17.066 28.27 16.9963C28.4712 16.9276 28.6464 16.831 28.7958 16.7065C28.9451 16.5821 29.0626 16.4327 29.1463 16.2575C29.2299 16.0822 29.2717 15.889 29.2717 15.6769C29.2717 15.4649 29.2319 15.2876 29.1522 15.1452C29.0716 15.0018 28.969 14.8853 28.8456 14.7937C28.7221 14.7021 28.5807 14.6254 28.4234 14.5637C28.267 14.502 28.1117 14.4492 27.9584 14.4054C27.6447 14.3028 27.349 14.1973 27.0711 14.0877C26.7933 13.9792 26.5514 13.8478 26.3433 13.6934C26.1351 13.5401 25.9709 13.3499 25.8504 13.1239C25.7299 12.8978 25.6691 12.62 25.6691 12.2914C25.6691 11.9399 25.7369 11.6253 25.8723 11.3435C26.0077 11.0627 26.1919 10.8207 26.4259 10.6156C26.6589 10.4115 26.9327 10.2541 27.2474 10.1446C27.561 10.0351 27.8976 9.98032 28.2551 9.98032C28.6126 9.98032 28.9362 10.0371 29.2249 10.1496C29.5137 10.2631 29.7547 10.4214 29.9478 10.6266C30.141 10.8317 30.2834 11.0776 30.375 11.3664C30.4666 11.6552 30.4935 11.9738 30.4577 12.3253H29.4589C29.4739 12.1202 29.4599 11.931 29.4201 11.7557C29.3793 11.5805 29.3086 11.4271 29.206 11.2957C29.1035 11.1633 28.969 11.0617 28.8007 10.988C28.6325 10.9153 28.4283 10.8795 28.1874 10.8795C27.9753 10.8795 27.7781 10.9083 27.5959 10.9671C27.4137 11.0258 27.2524 11.1095 27.114 11.219C26.9756 11.3276 26.867 11.46 26.7903 11.6133C26.7137 11.7667 26.6758 11.9419 26.6758 12.1391C26.6758 12.3223 26.7107 12.4766 26.7794 12.6051C26.8491 12.7325 26.9417 12.8441 27.0582 12.9397C27.1757 13.0343 27.3121 13.1149 27.4694 13.1796C27.6268 13.2454 27.7931 13.3041 27.9673 13.3559C28.274 13.4584 28.5687 13.566 28.8495 13.6785C29.1313 13.791 29.3793 13.9304 29.5944 14.0947C29.8094 14.259 29.9797 14.4582 30.1042 14.6922C30.2286 14.9262 30.2904 15.2139 30.2904 15.5575C30.2904 15.9299 30.2157 16.2664 30.0653 16.5651C29.916 16.8649 29.7118 17.1228 29.452 17.3378C29.1931 17.5529 28.8934 17.7172 28.5538 17.8307C28.2143 17.9433 27.8548 18 27.4754 18C27.0811 18 26.7266 17.9393 26.413 17.8188C26.0993 17.6983 25.8344 17.525 25.6184 17.299C25.4033 17.072 25.246 16.7972 25.1474 16.4725C25.0488 16.1469 25.0219 15.7845 25.0647 15.3822H26.0615C26.0047 15.907 26.1182 16.3242 26.402 16.6349Z" fill="#B3B3B3"/>
  <path d="M55.4906 7.86534H53.7162L54.5267 0.197144H56.3011L55.9506 3.45122L58.7765 0.197144H60.9134L57.4731 4.03174L60.1019 7.86634H57.966L55.8291 4.62321L55.4906 7.86534Z" fill="#B3B3B3"/>
  <path d="M52.1339 6.2662C51.885 6.62367 51.5823 6.93633 51.2248 7.20219C50.8674 7.47005 50.4611 7.67915 50.009 7.8325C49.557 7.98584 49.0671 8.06251 48.5413 8.06251C47.9419 8.06251 47.4131 7.96294 46.9531 7.76678C46.4931 7.56962 46.1057 7.30475 45.7911 6.97218C45.4764 6.6396 45.2384 6.25226 45.0741 5.81114C44.9098 5.36903 44.8272 4.90004 44.8272 4.40316C44.8272 3.84157 44.9327 3.29491 45.1448 2.76517C45.3569 2.23544 45.6576 1.76644 46.049 1.35719C46.4393 0.948941 46.9143 0.620346 47.4729 0.371411C48.0315 0.124468 48.6618 0 49.3628 0C49.9324 0 50.4342 0.0846379 50.8693 0.251922C51.3035 0.420203 51.6689 0.648227 51.9647 0.936992C52.2604 1.22576 52.4834 1.56232 52.6328 1.94568C52.7822 2.32904 52.8608 2.74028 52.8688 3.17741H51.0177C50.9809 2.70244 50.8076 2.32207 50.4979 2.0333C50.1873 1.74454 49.7581 1.60016 49.2104 1.60016C48.8161 1.60016 48.4607 1.67484 48.142 1.82519C47.8244 1.97455 47.5545 2.17669 47.3315 2.42762C47.1084 2.67854 46.9392 2.96631 46.8217 3.28694C46.7052 3.60757 46.6464 3.93616 46.6464 4.27272C46.6464 4.57941 46.6932 4.86618 46.7888 5.13205C46.8834 5.39891 47.0218 5.63091 47.205 5.82807C47.3872 6.02423 47.6083 6.18056 47.8682 6.29308C48.1271 6.4066 48.4178 6.46335 48.7395 6.46335C49.2433 6.46335 49.6725 6.33689 50.027 6.08497C50.3804 5.83305 50.6383 5.51043 50.7987 5.11512H52.6816C52.5651 5.52536 52.3829 5.90873 52.1339 6.2662Z" fill="#B3B3B3"/>
  <path d="M41.9764 6.93434H39.249L38.8547 7.86635H36.9598L40.5087 0.198151H42.1407L44.1023 7.86635H42.1735L41.9764 6.93434ZM39.8186 5.54329H41.6806L41.1001 2.38778L39.8186 5.54329Z" fill="#B3B3B3"/>
  <path d="M36.218 7.86534H32.2629L33.0735 0.197144H34.8479L34.2026 6.3319H36.3823L36.218 7.86534Z" fill="#B3B3B3"/>
  <path d="M28.9879 0.197998C29.4549 0.197998 29.8383 0.258738 30.138 0.379223C30.4367 0.499707 30.6688 0.65106 30.833 0.833281C30.9973 1.0165 31.1109 1.21764 31.1736 1.4357C31.2363 1.65377 31.2662 1.85989 31.2662 2.04908C31.2662 2.33386 31.2174 2.58977 31.1188 2.8168C31.0202 3.04283 30.8938 3.23501 30.7414 3.39134C30.5881 3.54767 30.4218 3.67612 30.2436 3.7747C30.0643 3.87427 29.8941 3.94099 29.7338 3.97783C29.8493 3.97783 29.9787 4.01168 30.1221 4.08238C30.2645 4.15109 30.3979 4.25166 30.5214 4.38409C30.6458 4.51453 30.7514 4.67684 30.839 4.87101C30.9266 5.06418 30.9705 5.28524 30.9705 5.53318C30.9705 5.72336 30.9356 5.95139 30.8669 6.21825C30.7972 6.4851 30.6618 6.74001 30.4616 6.98497C30.2605 7.22992 29.9787 7.43803 29.6172 7.6093C29.2558 7.78056 28.7868 7.8662 28.2103 7.8662H25L25.8105 0.197998H28.9879ZM26.9068 6.50801H28.0131C28.2541 6.50801 28.4512 6.47316 28.6046 6.40445C28.7579 6.33574 28.8784 6.24911 28.966 6.14655C29.0537 6.04399 29.1114 5.93546 29.1413 5.81796C29.1702 5.70146 29.1851 5.59491 29.1851 5.50131C29.1851 5.40572 29.1702 5.30814 29.1413 5.20458C29.1114 5.10202 29.0626 5.00743 28.9929 4.9198C28.9232 4.83218 28.8266 4.76048 28.7032 4.70671C28.5797 4.65294 28.4184 4.62407 28.2212 4.62407H27.103L26.9068 6.50801ZM28.8943 3.21609C29.0437 3.14639 29.1612 3.06075 29.2448 2.95819C29.3285 2.85563 29.3872 2.7461 29.4201 2.6296C29.453 2.5131 29.4689 2.40655 29.4689 2.31196C29.4689 2.22433 29.4559 2.13272 29.43 2.03912C29.4062 1.94353 29.3564 1.85591 29.2837 1.77525C29.211 1.69559 29.1124 1.62987 28.9879 1.57909C28.8635 1.52731 28.6992 1.50242 28.495 1.50242H27.4316L27.2454 3.32064H28.3079C28.5498 3.32064 28.745 3.28579 28.8943 3.21609Z" fill="#B3B3B3"/>
  <path d="M3 8H2V9H3V8Z" fill="#F66E1A"/>
  <path d="M4 7H3V8H4V7Z" fill="#F66E1A"/>
  <path d="M5 8H4V9H5V8Z" fill="#F66E1A"/>
  <path d="M6 7H5V8H6V7Z" fill="#F66E1A"/>
  <path d="M7 8H6V9H7V8Z" fill="#F66E1A"/>
  <path d="M8 7H7V8H8V7Z" fill="#F66E1A"/>
  <path d="M9 8H8V9H9V8Z" fill="#F66E1A"/>
  <path d="M10 7H9V8H10V7Z" fill="#F66E1A"/>
  <path d="M16 11V7H12L16 11Z" fill="#F66E1A"/>
  <path d="M11 8V14C11 14.154 15 12 15 12L11 8Z" fill="#F66E1A"/>
  <path d="M10 11H7H0C0 11 0 14 5 14C8.506 14 9 14 9 14C9.3 14 9.638 13.992 10 13.966V11Z" fill="#F66E1A"/>
  <path d="M10 11L3 17C3 14 3 11 10 11Z" fill="black"/>
  <path d="M7 6H15.904C15.195 1.037 10.324 1 6 1H0C0 1 2.325 6 7 6Z" fill="#F66E1A"/>
  <path d="M6 2H4V4H6V2Z" fill="black"/>
</svg>
